<svg xmlns="http://www.w3.org/2000/svg" id="canvas" viewBox="775.701 301.023 60.255 266.911"><path d="M 811.59,304.21 C 810.43 304.73, 809.20 305.34, 807.89 308.07 C 806.57 310.79, 806.16 312.30, 805.00 317.83 C 803.84 323.36, 803.28 327.41, 802.09 335.70 C 800.89 343.99, 800.36 348.86, 799.03 359.29 C 797.69 369.72, 797.01 376.28, 795.41 387.86 C 793.82 399.44, 792.80 404.99, 791.04 417.17 C 789.28 429.35, 788.44 436.37, 786.62 448.76 C 784.80 461.15, 783.45 467.44, 781.94 479.11 C 780.43 490.78, 779.65 496.64, 779.07 507.11 C 778.48 517.59, 778.70 522.99, 779.02 531.49 C 779.35 539.99, 779.88 543.84, 780.69 549.61 C 781.51 555.37, 782.21 557.35, 783.09 560.32 C 783.97 563.29, 784.44 563.68, 785.09 564.44 C 785.75 565.19, 786.15 565.09, 786.36 564.11 C 786.56 563.14, 786.75 562.54, 786.14 559.56 C 785.53 556.57, 784.32 554.82, 783.30 549.19 C 782.28 543.55, 781.55 539.79, 781.04 531.39 C 780.54 522.99, 780.28 517.61, 780.77 507.20 C 781.26 496.78, 782.02 490.95, 783.49 479.31 C 784.96 467.67, 786.31 461.37, 788.13 448.98 C 789.95 436.60, 790.79 429.58, 792.59 417.40 C 794.39 405.22, 795.42 399.67, 797.11 388.10 C 798.81 376.53, 799.55 369.96, 801.07 359.57 C 802.59 349.17, 803.21 344.30, 804.71 336.13 C 806.21 327.96, 807.07 323.95, 808.59 318.72 C 810.11 313.49, 811.29 312.64, 812.31 309.99 C 813.32 307.34, 813.81 306.62, 813.66 305.46 C 813.52 304.30, 812.74 303.69, 811.59 304.21" style="stroke: #444444; fill: #444444;"/><path d="M 786.13,360.01 C 787.12 358.89, 787.44 356.95, 788.22 354.07 C 789.00 351.19, 789.14 349.30, 790.03 345.59 C 790.92 341.88, 791.30 339.23, 792.66 335.52 C 794.03 331.80, 795.12 330.17, 796.86 327.03 C 798.60 323.90, 799.92 322.06, 801.37 319.83 C 802.83 317.61, 803.05 316.92, 804.12 315.91 C 805.19 314.91, 805.67 314.53, 806.72 314.80 C 807.77 315.07, 807.79 315.92, 809.37 317.26 C 810.95 318.60, 812.48 320.15, 814.64 321.51 C 816.81 322.86, 818.31 323.08, 820.19 324.05 C 822.08 325.01, 822.72 325.31, 824.08 326.33 C 825.44 327.34, 826.07 328.21, 826.99 329.12 C 827.90 330.02, 828.02 330.21, 828.66 330.86 C 829.31 331.50, 829.49 332.13, 830.21 332.34 C 830.93 332.55, 831.72 332.54, 832.26 331.91 C 832.80 331.28, 833.04 330.50, 832.93 329.19 C 832.81 327.88, 832.69 326.87, 831.67 325.36 C 830.65 323.86, 829.44 323.02, 827.83 321.65 C 826.23 320.29, 825.45 319.90, 823.66 318.54 C 821.87 317.19, 821.07 316.32, 818.87 314.88 C 816.68 313.45, 815.07 312.29, 812.68 311.39 C 810.28 310.49, 809.16 310.23, 806.90 310.37 C 804.64 310.51, 803.44 310.86, 801.38 312.09 C 799.33 313.33, 798.44 314.04, 796.62 316.55 C 794.81 319.05, 794.03 321.17, 792.29 324.61 C 790.54 328.05, 789.39 329.80, 787.89 333.73 C 786.40 337.66, 785.84 340.39, 784.80 344.26 C 783.76 348.13, 782.98 349.98, 782.68 353.07 C 782.38 356.15, 782.61 358.29, 783.30 359.68 C 783.99 361.07, 785.15 361.13, 786.13 360.01" style="stroke: #444444; fill: #444444;"/></svg>