<svg xmlns="http://www.w3.org/2000/svg" id="canvas" viewBox="250.894 335.945 1038.686 152.388"><path d="M 277.24,359.30 C 276.89 360.45, 276.82 361.89, 277.06 364.85 C 277.30 367.81, 277.86 369.75, 278.43 374.10 C 279.01 378.44, 279.37 381.40, 279.92 386.57 C 280.48 391.75, 280.76 394.65, 281.22 399.98 C 281.68 405.30, 281.88 408.15, 282.22 413.21 C 282.55 418.26, 282.66 420.74, 282.90 425.26 C 283.13 429.78, 283.22 432.00, 283.40 435.81 C 283.57 439.63, 283.55 441.41, 283.75 444.34 C 283.95 447.27, 284.13 448.52, 284.39 450.48 C 284.66 452.44, 284.80 453.07, 285.08 454.13 C 285.36 455.20, 285.47 455.48, 285.78 455.81 C 286.09 456.14, 286.35 456.12, 286.63 455.77 C 286.90 455.41, 286.98 455.14, 287.16 454.04 C 287.33 452.93, 287.52 452.25, 287.50 450.25 C 287.48 448.26, 287.32 446.99, 287.03 444.07 C 286.75 441.14, 286.42 439.42, 286.06 435.63 C 285.70 431.83, 285.56 429.62, 285.23 425.11 C 284.89 420.60, 284.75 418.12, 284.39 413.06 C 284.03 407.99, 283.83 405.14, 283.43 399.80 C 283.04 394.45, 282.83 391.54, 282.40 386.34 C 281.98 381.13, 281.75 378.15, 281.33 373.77 C 280.91 369.39, 280.83 367.37, 280.32 364.43 C 279.81 361.50, 279.40 360.13, 278.79 359.10 C 278.17 358.08, 277.58 358.15, 277.24 359.30" style="stroke: #444444; fill: #444444;"/><path d="M 254.72,425.10 C 255.24 425.26, 255.33 425.02, 256.50 424.82 C 257.67 424.62, 258.38 424.58, 260.57 424.08 C 262.76 423.59, 264.22 423.03, 267.45 422.34 C 270.69 421.65, 272.87 421.28, 276.75 420.64 C 280.62 420.00, 282.89 419.69, 286.83 419.13 C 290.78 418.58, 292.88 418.28, 296.49 417.86 C 300.10 417.43, 301.90 417.32, 304.89 417.00 C 307.88 416.68, 309.28 416.51, 311.44 416.26 C 313.60 416.02, 314.41 415.65, 315.69 415.77 C 316.97 415.89, 317.16 415.98, 317.83 416.87 C 318.49 417.75, 318.55 418.53, 319.03 420.19 C 319.50 421.86, 319.65 423.05, 320.19 425.20 C 320.73 427.35, 321.06 428.81, 321.71 430.97 C 322.37 433.12, 322.75 434.37, 323.47 435.96 C 324.19 437.54, 324.61 438.25, 325.30 438.89 C 325.98 439.53, 326.47 439.58, 326.90 439.16 C 327.33 438.75, 327.56 438.12, 327.44 436.81 C 327.31 435.50, 326.96 434.49, 326.27 432.60 C 325.59 430.72, 324.87 429.52, 324.02 427.38 C 323.17 425.24, 322.65 423.99, 322.03 421.91 C 321.40 419.82, 321.11 418.70, 320.89 416.96 C 320.66 415.22, 320.61 414.46, 320.89 413.19 C 321.17 411.93, 321.41 411.47, 322.29 410.63 C 323.18 409.80, 323.79 409.51, 325.31 409.03 C 326.83 408.54, 327.74 408.38, 329.89 408.20 C 332.04 408.02, 333.40 408.10, 336.06 408.15 C 338.73 408.19, 340.28 408.25, 343.21 408.45 C 346.14 408.64, 347.74 408.82, 350.71 409.12 C 353.68 409.41, 355.23 409.67, 358.04 409.92 C 360.85 410.17, 362.25 410.27, 364.76 410.37 C 367.26 410.47, 368.51 410.50, 370.57 410.43 C 372.62 410.36, 373.55 410.24, 375.05 410.03 C 376.55 409.82, 377.12 409.63, 378.05 409.37 C 378.97 409.11, 379.26 408.93, 379.68 408.74 C 380.10 408.54, 380.09 408.38, 380.15 408.41 C 380.21 408.45, 379.93 408.54, 379.99 408.92 C 380.05 409.31, 380.00 409.70, 380.44 410.32 C 380.89 410.95, 381.26 411.36, 382.20 412.05 C 383.13 412.74, 383.75 413.14, 385.12 413.78 C 386.49 414.42, 387.31 414.74, 389.03 415.24 C 390.75 415.74, 391.70 416.00, 393.70 416.28 C 395.70 416.56, 396.86 416.65, 399.02 416.64 C 401.19 416.63, 402.34 416.50, 404.53 416.25 C 406.71 416.01, 407.84 415.81, 409.96 415.41 C 412.07 415.00, 413.16 414.73, 415.11 414.23 C 417.07 413.74, 418.02 413.40, 419.74 412.93 C 421.45 412.47, 422.25 412.21, 423.70 411.92 C 425.14 411.64, 425.81 411.50, 426.98 411.51 C 428.15 411.52, 428.61 411.52, 429.54 411.98 C 430.48 412.45, 430.82 412.76, 431.66 413.85 C 432.50 414.94, 432.85 415.68, 433.73 417.44 C 434.61 419.21, 435.06 420.34, 436.07 422.68 C 437.07 425.02, 437.73 426.39, 438.75 429.13 C 439.77 431.87, 440.32 433.39, 441.18 436.39 C 442.04 439.39, 442.49 441.01, 443.05 444.12 C 443.60 447.23, 443.85 448.88, 443.97 451.92 C 444.10 454.96, 444.06 456.52, 443.66 459.33 C 443.25 462.15, 442.93 463.53, 441.94 466.00 C 440.96 468.46, 440.34 469.63, 438.73 471.68 C 437.12 473.72, 436.16 474.62, 433.91 476.21 C 431.66 477.80, 430.28 478.55, 427.46 479.62 C 424.65 480.68, 423.03 481.08, 419.85 481.53 C 416.68 481.99, 414.83 482.06, 411.60 481.91 C 408.36 481.75, 406.55 481.49, 403.69 480.77 C 400.82 480.04, 399.42 479.43, 397.28 478.27 C 395.14 477.10, 394.19 476.41, 392.99 474.94 C 391.79 473.46, 391.38 472.63, 391.28 470.91 C 391.18 469.19, 391.47 468.36, 392.48 466.35 C 393.49 464.34, 394.22 463.14, 396.33 460.88 C 398.43 458.61, 399.79 457.29, 403.00 455.03 C 406.21 452.77, 408.33 451.67, 412.36 449.58 C 416.40 447.50, 418.75 446.36, 423.18 444.59 C 427.61 442.82, 430.38 441.97, 434.52 440.74 C 438.66 439.51, 440.80 439.29, 443.86 438.46 C 446.93 437.63, 448.05 437.20, 449.84 436.58 C 451.63 435.96, 452.25 435.80, 452.81 435.37 C 453.38 434.94, 453.35 434.64, 452.65 434.42 C 451.95 434.21, 451.25 434.09, 449.33 434.29 C 447.42 434.50, 446.19 434.65, 443.07 435.44 C 439.95 436.22, 437.90 436.85, 433.73 438.21 C 429.57 439.58, 426.76 440.46, 422.25 442.27 C 417.74 444.08, 415.37 445.19, 411.19 447.25 C 407.00 449.30, 404.81 450.31, 401.33 452.54 C 397.85 454.78, 396.21 455.98, 393.78 458.44 C 391.36 460.89, 390.33 462.26, 389.20 464.81 C 388.07 467.35, 387.88 468.75, 388.12 471.17 C 388.36 473.59, 388.91 474.87, 390.39 476.92 C 391.87 478.96, 393.02 479.95, 395.51 481.40 C 398.00 482.85, 399.66 483.39, 402.84 484.16 C 406.03 484.94, 407.95 485.12, 411.45 485.26 C 414.94 485.41, 416.88 485.35, 420.32 484.88 C 423.77 484.40, 425.55 484.03, 428.68 482.89 C 431.81 481.75, 433.39 480.96, 435.97 479.17 C 438.56 477.38, 439.73 476.30, 441.60 473.94 C 443.47 471.57, 444.20 470.15, 445.31 467.33 C 446.42 464.51, 446.73 462.94, 447.15 459.82 C 447.58 456.71, 447.57 455.04, 447.44 451.78 C 447.30 448.52, 447.02 446.79, 446.47 443.53 C 445.93 440.26, 445.49 438.59, 444.71 435.45 C 443.92 432.30, 443.48 430.71, 442.56 427.81 C 441.63 424.92, 441.12 423.45, 440.08 420.98 C 439.04 418.50, 438.50 417.36, 437.37 415.45 C 436.23 413.53, 435.69 412.70, 434.40 411.41 C 433.12 410.12, 432.41 409.65, 430.96 408.99 C 429.51 408.33, 428.72 408.23, 427.15 408.11 C 425.58 407.99, 424.76 408.13, 423.10 408.37 C 421.43 408.61, 420.60 408.88, 418.82 409.30 C 417.04 409.72, 416.12 410.03, 414.20 410.47 C 412.29 410.91, 411.26 411.16, 409.24 411.51 C 407.22 411.86, 406.14 412.03, 404.10 412.22 C 402.06 412.42, 401.00 412.51, 399.04 412.49 C 397.08 412.46, 396.07 412.37, 394.32 412.10 C 392.56 411.83, 391.73 411.60, 390.28 411.13 C 388.84 410.67, 388.17 410.34, 387.08 409.78 C 385.99 409.21, 385.60 408.82, 384.82 408.31 C 384.05 407.80, 383.80 407.52, 383.21 407.22 C 382.61 406.92, 382.37 406.93, 381.83 406.80 C 381.29 406.66, 381.04 406.63, 380.52 406.55 C 380.00 406.47, 379.84 406.41, 379.24 406.41 C 378.65 406.41, 378.44 406.47, 377.54 406.54 C 376.64 406.61, 376.15 406.69, 374.74 406.75 C 373.34 406.81, 372.49 406.87, 370.53 406.84 C 368.57 406.81, 367.39 406.77, 364.96 406.61 C 362.53 406.44, 361.17 406.29, 358.39 406.03 C 355.62 405.77, 354.07 405.62, 351.10 405.31 C 348.13 405.00, 346.52 404.76, 343.54 404.47 C 340.55 404.17, 338.99 403.90, 336.17 403.82 C 333.34 403.74, 331.86 403.70, 329.41 404.05 C 326.97 404.40, 325.82 404.70, 323.94 405.57 C 322.05 406.44, 321.20 407.04, 319.97 408.39 C 318.74 409.75, 318.35 410.58, 317.80 412.34 C 317.24 414.10, 317.19 415.08, 317.21 417.20 C 317.24 419.31, 317.46 420.55, 317.91 422.90 C 318.35 425.26, 318.72 426.63, 319.44 428.98 C 320.16 431.32, 320.58 432.75, 321.51 434.63 C 322.43 436.52, 323.09 437.42, 324.05 438.41 C 325.02 439.40, 325.63 439.61, 326.33 439.57 C 327.02 439.53, 327.33 439.16, 327.52 438.20 C 327.71 437.24, 327.57 436.47, 327.28 434.78 C 326.98 433.10, 326.59 431.93, 326.06 429.76 C 325.52 427.60, 325.27 426.18, 324.59 423.97 C 323.91 421.76, 323.58 420.54, 322.63 418.72 C 321.69 416.91, 321.15 416.01, 319.85 414.89 C 318.55 413.76, 317.87 413.47, 316.14 413.09 C 314.41 412.70, 313.51 412.85, 311.18 412.95 C 308.85 413.06, 307.51 413.23, 304.50 413.61 C 301.48 413.99, 299.71 414.34, 296.10 414.85 C 292.49 415.36, 290.40 415.66, 286.44 416.17 C 282.48 416.68, 280.24 416.95, 276.30 417.38 C 272.36 417.82, 270.13 417.87, 266.75 418.34 C 263.37 418.82, 261.70 419.01, 259.39 419.74 C 257.08 420.47, 256.28 421.14, 255.19 422.00 C 254.09 422.86, 254.00 423.40, 253.91 424.02 C 253.81 424.64, 254.20 424.94, 254.72 425.10" style="stroke: #444444; fill: #444444;"/><path d="M 558.75,356.60 C 558.39 357.45, 558.19 358.38, 558.41 360.61 C 558.64 362.84, 559.04 364.37, 559.89 367.75 C 560.73 371.13, 561.49 373.46, 562.63 377.52 C 563.78 381.57, 564.45 383.90, 565.61 388.03 C 566.78 392.15, 567.41 394.35, 568.46 398.15 C 569.50 401.94, 569.99 403.79, 570.83 407.00 C 571.67 410.20, 571.97 411.68, 572.65 414.18 C 573.34 416.68, 573.70 417.85, 574.24 419.48 C 574.77 421.11, 574.98 421.52, 575.34 422.33 C 575.71 423.13, 575.76 423.27, 576.05 423.49 C 576.34 423.71, 576.55 423.71, 576.79 423.42 C 577.03 423.13, 577.16 422.97, 577.27 422.04 C 577.37 421.11, 577.56 420.53, 577.32 418.77 C 577.07 417.01, 576.74 415.77, 576.04 413.25 C 575.34 410.72, 574.79 409.32, 573.81 406.15 C 572.84 402.97, 572.26 401.15, 571.16 397.38 C 570.07 393.61, 569.43 391.42, 568.34 387.28 C 567.24 383.15, 566.66 380.81, 565.71 376.72 C 564.75 372.64, 564.33 370.23, 563.54 366.87 C 562.75 363.51, 562.42 362.02, 561.76 359.92 C 561.09 357.82, 560.82 357.03, 560.22 356.37 C 559.62 355.71, 559.11 355.76, 558.75 356.60" style="stroke: #444444; fill: #444444;"/><path d="M 542.86,403.69 C 543.52 403.97, 543.98 403.85, 545.70 403.72 C 547.43 403.60, 548.57 403.53, 551.49 403.06 C 554.41 402.59, 556.41 402.01, 560.30 401.38 C 564.19 400.74, 566.63 400.43, 570.94 399.87 C 575.24 399.32, 577.70 399.09, 581.84 398.61 C 585.99 398.12, 588.10 397.86, 591.64 397.45 C 595.18 397.04, 596.83 396.94, 599.57 396.56 C 602.31 396.17, 603.52 395.92, 605.34 395.52 C 607.16 395.12, 607.82 394.72, 608.66 394.56 C 609.50 394.41, 609.39 394.27, 609.54 394.76 C 609.68 395.25, 609.34 395.80, 609.38 397.03 C 609.42 398.26, 609.34 399.16, 609.74 400.91 C 610.14 402.65, 610.42 403.81, 611.37 405.74 C 612.33 407.67, 613.02 408.86, 614.53 410.56 C 616.05 412.25, 617.04 413.04, 618.95 414.22 C 620.87 415.41, 621.97 415.87, 624.10 416.49 C 626.22 417.12, 627.42 417.32, 629.59 417.36 C 631.75 417.40, 632.91 417.23, 634.93 416.70 C 636.95 416.17, 637.93 415.70, 639.68 414.71 C 641.44 413.72, 642.27 413.07, 643.71 411.76 C 645.15 410.44, 645.91 409.60, 646.87 408.14 C 647.82 406.68, 648.21 405.53, 648.49 404.46 C 648.76 403.39, 648.37 402.73, 648.25 402.80 C 648.14 402.87, 647.74 403.23, 647.91 404.82 C 648.08 406.41, 648.26 407.85, 649.09 410.76 C 649.91 413.68, 650.76 415.68, 652.03 419.40 C 653.30 423.13, 654.09 425.40, 655.45 429.39 C 656.80 433.38, 657.59 435.52, 658.82 439.37 C 660.04 443.22, 660.72 445.13, 661.57 448.64 C 662.42 452.14, 662.77 453.87, 663.08 456.89 C 663.38 459.91, 663.39 461.33, 663.10 463.73 C 662.82 466.13, 662.62 467.18, 661.64 468.90 C 660.66 470.62, 659.97 471.30, 658.21 472.33 C 656.45 473.35, 655.32 473.62, 652.83 474.03 C 650.35 474.44, 648.79 474.58, 645.79 474.38 C 642.80 474.18, 640.99 473.93, 637.85 473.02 C 634.70 472.11, 632.89 471.37, 630.06 469.82 C 627.22 468.27, 625.75 467.24, 623.66 465.26 C 621.57 463.27, 620.70 462.16, 619.60 459.90 C 618.51 457.63, 618.19 456.46, 618.18 453.93 C 618.17 451.40, 618.42 450.06, 619.56 447.26 C 620.70 444.46, 621.60 442.91, 623.88 439.92 C 626.15 436.93, 627.74 435.26, 630.94 432.31 C 634.14 429.36, 636.14 427.87, 639.88 425.18 C 643.62 422.50, 645.78 421.21, 649.65 418.88 C 653.51 416.55, 655.60 415.43, 659.22 413.52 C 662.84 411.62, 664.67 410.80, 667.75 409.35 C 670.83 407.91, 672.33 407.39, 674.61 406.30 C 676.90 405.22, 677.78 404.46, 679.16 403.93 C 680.53 403.40, 680.81 403.22, 681.48 403.64 C 682.16 404.07, 682.17 404.60, 682.55 406.07 C 682.93 407.53, 682.91 408.55, 683.39 410.97 C 683.87 413.39, 684.29 415.05, 684.97 418.14 C 685.65 421.24, 686.10 423.13, 686.79 426.43 C 687.47 429.72, 687.80 431.50, 688.37 434.61 C 688.93 437.72, 689.15 439.37, 689.61 441.98 C 690.06 444.58, 690.25 445.90, 690.65 447.62 C 691.06 449.34, 691.30 449.97, 691.64 450.55 C 691.97 451.14, 692.26 451.14, 692.33 450.53 C 692.40 449.93, 692.43 449.26, 691.97 447.53 C 691.52 445.81, 691.02 444.52, 690.05 441.92 C 689.07 439.31, 688.10 437.67, 687.10 434.51 C 686.09 431.36, 685.60 429.50, 685.02 426.14 C 684.45 422.78, 684.23 420.95, 684.22 417.73 C 684.21 414.51, 684.36 412.87, 684.96 410.01 C 685.57 407.15, 686.10 405.79, 687.25 403.43 C 688.40 401.07, 689.12 399.95, 690.72 398.21 C 692.31 396.48, 693.27 395.74, 695.21 394.75 C 697.15 393.75, 698.31 393.48, 700.43 393.24 C 702.56 393.00, 703.77 393.14, 705.82 393.56 C 707.88 393.98, 709.00 394.43, 710.70 395.33 C 712.39 396.24, 713.23 396.88, 714.31 398.07 C 715.39 399.25, 715.78 399.97, 716.11 401.27 C 716.44 402.57, 716.39 403.30, 715.95 404.56 C 715.50 405.82, 715.05 406.43, 713.90 407.57 C 712.74 408.71, 711.89 409.30, 710.18 410.27 C 708.47 411.24, 707.37 411.73, 705.37 412.42 C 703.36 413.11, 702.16 413.36, 700.16 413.71 C 698.17 414.06, 697.00 414.08, 695.38 414.17 C 693.77 414.27, 692.98 414.24, 692.10 414.18 C 691.22 414.13, 691.00 414.13, 690.98 413.89 C 690.97 413.66, 691.17 413.55, 692.01 413.00 C 692.85 412.46, 693.47 412.08, 695.18 411.17 C 696.90 410.27, 698.10 409.67, 700.59 408.48 C 703.09 407.29, 704.65 406.46, 707.65 405.23 C 710.65 404.01, 712.43 403.39, 715.60 402.36 C 718.77 401.33, 720.56 400.89, 723.50 400.10 C 726.43 399.31, 727.91 398.94, 730.28 398.40 C 732.65 397.87, 733.65 397.61, 735.35 397.43 C 737.04 397.25, 737.68 397.29, 738.76 397.51 C 739.84 397.72, 740.08 397.84, 740.74 398.52 C 741.39 399.20, 741.43 399.77, 742.04 400.91 C 742.64 402.05, 742.94 402.91, 743.77 404.23 C 744.60 405.55, 745.12 406.30, 746.19 407.52 C 747.26 408.74, 747.92 409.48, 749.12 410.34 C 750.33 411.20, 751.14 411.50, 752.23 411.83 C 753.33 412.17, 753.79 412.10, 754.59 412.00 C 755.39 411.91, 755.80 411.72, 756.23 411.37 C 756.67 411.03, 756.85 410.66, 756.76 410.26 C 756.68 409.87, 756.12 409.55, 755.81 409.40 C 755.51 409.25, 755.45 409.51, 755.23 409.51 C 755.02 409.50, 755.07 409.54, 754.75 409.38 C 754.42 409.22, 754.24 409.14, 753.61 408.72 C 752.98 408.29, 752.44 408.02, 751.59 407.24 C 750.74 406.47, 750.23 405.91, 749.38 404.84 C 748.52 403.77, 748.15 403.11, 747.31 401.90 C 746.47 400.69, 746.12 399.91, 745.18 398.78 C 744.25 397.64, 743.78 397.04, 742.63 396.23 C 741.48 395.42, 740.92 395.13, 739.43 394.73 C 737.94 394.33, 737.15 394.19, 735.17 394.21 C 733.19 394.23, 732.07 394.36, 729.54 394.84 C 727.02 395.32, 725.54 395.77, 722.54 396.60 C 719.54 397.43, 717.77 397.98, 714.53 398.99 C 711.28 399.99, 709.49 400.58, 706.32 401.64 C 703.15 402.70, 701.39 403.12, 698.69 404.28 C 695.99 405.43, 694.66 406.10, 692.82 407.43 C 690.99 408.76, 690.29 409.56, 689.53 410.94 C 688.77 412.33, 688.71 413.16, 689.02 414.35 C 689.34 415.54, 689.85 416.16, 691.11 416.89 C 692.36 417.61, 693.36 417.81, 695.30 417.99 C 697.24 418.16, 698.51 418.07, 700.80 417.75 C 703.08 417.44, 704.42 417.18, 706.73 416.39 C 709.03 415.60, 710.31 415.07, 712.31 413.82 C 714.31 412.56, 715.33 411.78, 716.71 410.13 C 718.09 408.48, 718.69 407.49, 719.23 405.56 C 719.76 403.64, 719.82 402.46, 719.38 400.50 C 718.94 398.54, 718.39 397.45, 717.03 395.76 C 715.66 394.06, 714.62 393.20, 712.53 392.01 C 710.44 390.82, 709.08 390.30, 706.57 389.80 C 704.06 389.31, 702.58 389.20, 699.98 389.55 C 697.37 389.90, 695.93 390.30, 693.55 391.55 C 691.17 392.79, 689.99 393.71, 688.07 395.77 C 686.16 397.83, 685.27 399.15, 683.98 401.86 C 682.69 404.58, 682.24 406.17, 681.64 409.34 C 681.03 412.52, 680.93 414.28, 680.94 417.74 C 680.95 421.20, 681.19 423.10, 681.67 426.65 C 682.16 430.21, 682.63 432.12, 683.37 435.51 C 684.10 438.90, 684.39 440.85, 685.37 443.61 C 686.34 446.38, 687.07 447.73, 688.23 449.35 C 689.40 450.97, 690.18 451.44, 691.20 451.74 C 692.23 452.03, 692.81 451.72, 693.37 450.82 C 693.94 449.92, 694.02 449.14, 694.03 447.25 C 694.04 445.35, 693.83 444.00, 693.40 441.34 C 692.98 438.68, 692.51 437.07, 691.90 433.95 C 691.29 430.83, 690.95 429.06, 690.37 425.74 C 689.79 422.43, 689.53 420.52, 688.99 417.36 C 688.45 414.20, 688.35 412.50, 687.67 409.97 C 687.00 407.43, 686.63 406.37, 685.61 404.70 C 684.59 403.03, 684.00 402.29, 682.57 401.60 C 681.14 400.90, 680.33 400.91, 678.45 401.23 C 676.57 401.56, 675.59 402.13, 673.18 403.22 C 670.78 404.31, 669.46 405.08, 666.42 406.68 C 663.37 408.27, 661.58 409.19, 657.97 411.21 C 654.36 413.23, 652.27 414.38, 648.36 416.76 C 644.45 419.15, 642.27 420.43, 638.43 423.14 C 634.58 425.85, 632.52 427.33, 629.14 430.32 C 625.77 433.31, 624.06 434.95, 621.54 438.09 C 619.02 441.22, 617.91 442.82, 616.54 445.99 C 615.18 449.16, 614.72 450.85, 614.71 453.93 C 614.70 457.01, 615.16 458.64, 616.48 461.40 C 617.80 464.16, 618.93 465.46, 621.32 467.72 C 623.72 469.99, 625.34 471.03, 628.44 472.75 C 631.55 474.47, 633.45 475.25, 636.86 476.31 C 640.27 477.37, 642.16 477.74, 645.50 478.05 C 648.83 478.36, 650.62 478.42, 653.53 477.86 C 656.44 477.29, 657.86 476.70, 660.05 475.23 C 662.23 473.76, 663.16 472.73, 664.45 470.51 C 665.73 468.30, 666.11 466.95, 666.47 464.15 C 666.84 461.35, 666.68 459.77, 666.26 456.52 C 665.84 453.28, 665.34 451.52, 664.38 447.92 C 663.42 444.32, 662.70 442.41, 661.48 438.53 C 660.25 434.64, 659.46 432.52, 658.24 428.49 C 657.02 424.47, 656.35 422.20, 655.38 418.41 C 654.42 414.61, 654.26 412.49, 653.42 409.54 C 652.59 406.58, 652.16 405.25, 651.20 403.66 C 650.23 402.06, 649.69 401.76, 648.61 401.55 C 647.53 401.34, 646.81 401.77, 645.78 402.62 C 644.76 403.47, 644.41 404.51, 643.47 405.78 C 642.53 407.06, 642.20 407.86, 641.07 409.00 C 639.95 410.13, 639.25 410.64, 637.83 411.45 C 636.42 412.27, 635.62 412.64, 633.98 413.06 C 632.35 413.47, 631.43 413.58, 629.67 413.54 C 627.91 413.49, 626.91 413.34, 625.19 412.82 C 623.46 412.30, 622.54 411.94, 621.04 410.95 C 619.53 409.96, 618.81 409.31, 617.67 407.89 C 616.54 406.47, 616.08 405.49, 615.37 403.86 C 614.66 402.24, 614.58 401.29, 614.10 399.75 C 613.63 398.20, 613.57 397.42, 613.01 396.15 C 612.44 394.87, 612.13 394.18, 611.27 393.40 C 610.41 392.61, 609.99 392.43, 608.71 392.23 C 607.43 392.03, 606.79 392.24, 604.86 392.41 C 602.93 392.59, 601.78 392.69, 599.06 393.11 C 596.34 393.53, 594.75 393.95, 591.24 394.50 C 587.73 395.04, 585.64 395.34, 581.52 395.84 C 577.39 396.34, 574.94 396.56, 570.61 396.99 C 566.28 397.42, 563.83 397.62, 559.87 397.99 C 555.90 398.35, 553.78 398.30, 550.79 398.81 C 547.80 399.32, 546.60 399.83, 544.92 400.54 C 543.24 401.25, 542.82 401.73, 542.41 402.36 C 542.00 402.99, 542.20 403.42, 542.86 403.69" style="stroke: #444444; fill: #444444;"/><path d="M 736.24,366.66 C 735.95 366.16, 735.53 366.06, 735.39 366.21 C 735.25 366.36, 735.29 366.94, 735.54 367.39 C 735.78 367.84, 736.32 368.09, 736.63 368.47 C 736.94 368.86, 737.05 369.28, 737.10 369.33 C 737.14 369.37, 737.03 369.23, 736.86 368.70 C 736.69 368.16, 736.54 367.16, 736.24 366.66" style="stroke: #444444; fill: #444444;"/><path d="M 770.45,391.26 C 770.12 391.90, 770.18 392.62, 770.33 393.95 C 770.48 395.28, 770.66 396.16, 771.21 397.92 C 771.77 399.68, 772.21 400.95, 773.10 402.75 C 774.00 404.55, 774.62 405.57, 775.69 406.94 C 776.76 408.32, 777.30 408.93, 778.45 409.64 C 779.60 410.35, 780.23 410.55, 781.45 410.50 C 782.66 410.45, 783.33 410.22, 784.53 409.39 C 785.74 408.57, 786.30 407.83, 787.47 406.37 C 788.64 404.91, 789.14 403.84, 790.37 402.10 C 791.59 400.36, 792.24 399.28, 793.59 397.67 C 794.94 396.07, 795.74 395.19, 797.13 394.08 C 798.51 392.96, 799.22 392.49, 800.50 392.08 C 801.79 391.67, 802.38 391.70, 803.56 392.01 C 804.73 392.32, 805.27 392.73, 806.39 393.64 C 807.51 394.54, 808.00 395.20, 809.14 396.54 C 810.29 397.89, 810.84 398.76, 812.10 400.35 C 813.36 401.94, 814.01 402.90, 815.44 404.48 C 816.88 406.06, 817.65 406.89, 819.28 408.26 C 820.91 409.62, 821.73 410.31, 823.59 411.32 C 825.44 412.32, 826.47 412.75, 828.55 413.27 C 830.64 413.79, 831.77 413.93, 834.00 413.92 C 836.22 413.91, 837.43 413.77, 839.68 413.20 C 841.93 412.62, 843.15 412.16, 845.26 411.05 C 847.36 409.94, 848.45 409.23, 850.22 407.65 C 851.99 406.07, 852.84 405.07, 854.11 403.14 C 855.38 401.22, 855.93 400.06, 856.54 398.02 C 857.16 395.99, 857.33 394.85, 857.17 392.96 C 857.01 391.07, 856.71 390.02, 855.75 388.57 C 854.79 387.11, 853.97 386.42, 852.36 385.68 C 850.75 384.95, 849.61 384.76, 847.69 384.88 C 845.77 384.99, 844.55 385.31, 842.77 386.24 C 840.98 387.18, 839.97 387.98, 838.76 389.55 C 837.54 391.11, 836.98 392.20, 836.67 394.05 C 836.37 395.90, 836.49 397.05, 837.21 398.80 C 837.94 400.55, 838.69 401.46, 840.30 402.79 C 841.91 404.11, 843.08 404.65, 845.27 405.42 C 847.46 406.19, 848.83 406.39, 851.24 406.63 C 853.66 406.87, 855.02 406.80, 857.34 406.63 C 859.66 406.47, 860.86 406.23, 862.84 405.83 C 864.83 405.43, 865.81 405.11, 867.25 404.63 C 868.68 404.15, 869.27 403.76, 870.01 403.42 C 870.76 403.08, 870.80 402.80, 870.99 402.93 C 871.18 403.05, 870.92 403.17, 870.97 404.04 C 871.03 404.91, 870.93 405.58, 871.25 407.27 C 871.58 408.95, 871.86 410.12, 872.61 412.47 C 873.36 414.82, 873.96 416.21, 875.00 419.02 C 876.04 421.83, 876.71 423.48, 877.81 426.52 C 878.91 429.56, 879.56 431.24, 880.50 434.23 C 881.44 437.23, 881.89 438.76, 882.52 441.51 C 883.14 444.26, 883.44 445.61, 883.63 447.98 C 883.82 450.34, 883.88 451.41, 883.48 453.33 C 883.08 455.25, 882.75 456.09, 881.65 457.58 C 880.54 459.06, 879.81 459.63, 877.94 460.73 C 876.08 461.83, 874.95 462.29, 872.31 463.06 C 869.67 463.83, 868.05 464.18, 864.75 464.56 C 861.46 464.95, 859.47 465.03, 855.83 464.97 C 852.19 464.91, 850.15 464.77, 846.55 464.27 C 842.94 463.76, 840.99 463.34, 837.81 462.47 C 834.64 461.60, 833.10 460.99, 830.67 459.91 C 828.23 458.83, 827.08 458.23, 825.62 457.07 C 824.17 455.91, 823.69 455.36, 823.38 454.11 C 823.07 452.86, 823.22 452.24, 824.08 450.81 C 824.94 449.38, 825.70 448.66, 827.66 446.95 C 829.63 445.25, 830.87 444.11, 833.91 442.27 C 836.95 440.43, 838.92 439.43, 842.86 437.75 C 846.80 436.08, 849.20 435.22, 853.61 433.88 C 858.01 432.55, 860.50 431.97, 864.91 431.09 C 869.31 430.21, 871.64 429.88, 875.64 429.47 C 879.64 429.06, 881.64 429.12, 884.91 429.05 C 888.18 428.98, 889.62 429.16, 892.01 429.12 C 894.39 429.07, 895.85 429.13, 896.85 428.81 C 897.84 428.49, 897.91 428.02, 896.97 427.51 C 896.04 426.99, 894.59 426.55, 892.16 426.25 C 889.73 425.95, 888.19 425.87, 884.82 425.99 C 881.46 426.11, 879.42 426.31, 875.34 426.83 C 871.25 427.36, 868.90 427.72, 864.41 428.63 C 859.92 429.55, 857.40 430.13, 852.88 431.42 C 848.36 432.72, 845.92 433.54, 841.80 435.13 C 837.67 436.71, 835.63 437.59, 832.27 439.35 C 828.90 441.11, 827.20 441.91, 824.98 443.92 C 822.75 445.93, 821.99 447.23, 821.13 449.40 C 820.27 451.57, 820.20 452.75, 820.68 454.76 C 821.15 456.76, 821.79 457.74, 823.49 459.43 C 825.19 461.12, 826.48 461.98, 829.18 463.21 C 831.89 464.44, 833.62 464.77, 837.01 465.59 C 840.39 466.42, 842.38 466.82, 846.13 467.33 C 849.87 467.85, 851.96 468.02, 855.75 468.16 C 859.54 468.30, 861.56 468.30, 865.08 468.03 C 868.61 467.76, 870.42 467.64, 873.38 466.81 C 876.35 465.98, 877.70 465.31, 879.90 463.86 C 882.11 462.41, 883.02 461.52, 884.40 459.56 C 885.78 457.60, 886.22 456.43, 886.79 454.07 C 887.35 451.71, 887.35 450.42, 887.22 447.74 C 887.08 445.07, 886.77 443.61, 886.12 440.70 C 885.46 437.78, 884.88 436.24, 883.93 433.17 C 882.97 430.09, 882.33 428.42, 881.35 425.32 C 880.37 422.22, 879.89 420.52, 879.03 417.67 C 878.17 414.82, 877.78 413.40, 877.07 411.08 C 876.36 408.76, 876.11 407.70, 875.48 406.06 C 874.85 404.41, 874.63 403.82, 873.93 402.83 C 873.22 401.84, 872.82 401.54, 871.93 401.10 C 871.05 400.67, 870.60 400.63, 869.49 400.65 C 868.37 400.67, 867.81 400.91, 866.35 401.18 C 864.88 401.46, 864.02 401.74, 862.17 402.02 C 860.33 402.29, 859.22 402.48, 857.12 402.55 C 855.02 402.63, 853.79 402.63, 851.68 402.41 C 849.57 402.18, 848.39 401.97, 846.57 401.43 C 844.75 400.90, 843.83 400.53, 842.58 399.72 C 841.33 398.92, 840.82 398.41, 840.32 397.41 C 839.82 396.41, 839.80 395.81, 840.08 394.74 C 840.37 393.68, 840.83 393.04, 841.75 392.07 C 842.67 391.11, 843.41 390.57, 844.68 389.91 C 845.94 389.25, 846.80 388.99, 848.08 388.78 C 849.37 388.57, 850.10 388.55, 851.09 388.85 C 852.09 389.15, 852.53 389.45, 853.05 390.30 C 853.57 391.15, 853.72 391.80, 853.70 393.11 C 853.68 394.42, 853.53 395.28, 852.96 396.86 C 852.40 398.43, 851.95 399.42, 850.88 400.99 C 849.81 402.56, 849.12 403.41, 847.63 404.72 C 846.13 406.03, 845.21 406.61, 843.42 407.54 C 841.63 408.47, 840.58 408.87, 838.68 409.37 C 836.79 409.88, 835.79 410.02, 833.94 410.07 C 832.09 410.12, 831.15 410.02, 829.44 409.62 C 827.73 409.22, 826.90 408.92, 825.38 408.06 C 823.85 407.21, 823.19 406.61, 821.81 405.35 C 820.43 404.10, 819.78 403.31, 818.49 401.80 C 817.19 400.28, 816.62 399.36, 815.35 397.76 C 814.08 396.17, 813.50 395.26, 812.13 393.84 C 810.77 392.41, 810.09 391.66, 808.52 390.65 C 806.95 389.64, 806.07 389.16, 804.29 388.80 C 802.51 388.44, 801.52 388.41, 799.64 388.83 C 797.76 389.26, 796.74 389.75, 794.89 390.93 C 793.04 392.11, 792.05 393.05, 790.39 394.74 C 788.73 396.42, 787.91 397.55, 786.57 399.36 C 785.24 401.16, 784.62 402.25, 783.72 403.77 C 782.82 405.28, 782.57 406.05, 782.07 406.94 C 781.57 407.82, 781.56 408.08, 781.22 408.18 C 780.88 408.29, 780.78 408.13, 780.36 407.47 C 779.94 406.80, 779.71 406.20, 779.13 404.86 C 778.55 403.52, 778.19 402.49, 777.48 400.76 C 776.77 399.03, 776.32 397.82, 775.56 396.22 C 774.81 394.62, 774.40 393.84, 773.68 392.75 C 772.97 391.65, 772.62 391.04, 771.97 390.74 C 771.33 390.44, 770.78 390.62, 770.45 391.26" style="stroke: #444444; fill: #444444;"/><path d="M 1000.74,343.54 C 1000.41 344.16, 1000.33 344.63, 1000.44 346.33 C 1000.55 348.02, 1000.57 349.17, 1001.29 352.00 C 1002.01 354.83, 1002.91 356.74, 1004.04 360.48 C 1005.17 364.21, 1005.83 366.60, 1006.95 370.69 C 1008.07 374.77, 1008.63 377.07, 1009.64 380.91 C 1010.66 384.76, 1011.13 386.66, 1012.01 389.92 C 1012.90 393.18, 1013.15 394.70, 1014.06 397.21 C 1014.96 399.72, 1015.42 400.86, 1016.54 402.47 C 1017.65 404.08, 1018.33 404.72, 1019.66 405.26 C 1020.98 405.79, 1021.76 405.76, 1023.17 405.13 C 1024.59 404.51, 1025.33 403.78, 1026.73 402.11 C 1028.13 400.44, 1028.81 399.08, 1030.18 396.79 C 1031.56 394.50, 1032.22 392.92, 1033.60 390.66 C 1034.98 388.40, 1035.76 387.12, 1037.08 385.51 C 1038.39 383.89, 1039.03 383.20, 1040.18 382.59 C 1041.34 381.98, 1041.82 382.01, 1042.86 382.45 C 1043.91 382.90, 1044.33 383.54, 1045.41 384.82 C 1046.49 386.10, 1047.03 387.07, 1048.27 388.87 C 1049.51 390.66, 1050.19 391.81, 1051.61 393.80 C 1053.02 395.79, 1053.78 396.92, 1055.34 398.81 C 1056.91 400.71, 1057.70 401.71, 1059.42 403.28 C 1061.14 404.85, 1062.03 405.56, 1063.96 406.69 C 1065.88 407.81, 1066.89 408.31, 1069.04 408.91 C 1071.19 409.50, 1072.38 409.71, 1074.72 409.68 C 1077.06 409.65, 1078.33 409.45, 1080.74 408.76 C 1083.15 408.07, 1084.42 407.56, 1086.76 406.23 C 1089.10 404.89, 1090.39 403.98, 1092.43 402.07 C 1094.47 400.17, 1095.51 398.91, 1096.97 396.68 C 1098.43 394.45, 1099.08 393.15, 1099.72 390.91 C 1100.37 388.67, 1100.52 387.41, 1100.21 385.48 C 1099.89 383.55, 1099.36 382.57, 1098.13 381.26 C 1096.91 379.95, 1095.94 379.38, 1094.07 378.93 C 1092.20 378.48, 1090.90 378.48, 1088.79 379.02 C 1086.67 379.56, 1085.38 380.16, 1083.50 381.62 C 1081.62 383.08, 1080.62 384.18, 1079.38 386.31 C 1078.14 388.44, 1077.55 389.83, 1077.29 392.27 C 1077.03 394.70, 1077.16 396.15, 1078.08 398.49 C 1079.01 400.83, 1079.86 402.09, 1081.90 403.97 C 1083.95 405.84, 1085.40 406.69, 1088.32 407.86 C 1091.24 409.04, 1093.09 409.36, 1096.50 409.85 C 1099.91 410.33, 1101.85 410.38, 1105.36 410.27 C 1108.87 410.16, 1110.76 409.90, 1114.06 409.29 C 1117.36 408.68, 1119.10 408.28, 1121.87 407.21 C 1124.64 406.13, 1125.92 405.36, 1127.92 403.91 C 1129.91 402.46, 1130.73 401.54, 1131.86 399.96 C 1132.99 398.37, 1133.33 397.28, 1133.56 396.00 C 1133.78 394.73, 1133.41 393.98, 1132.98 393.58 C 1132.55 393.18, 1131.83 393.29, 1131.40 394.00 C 1130.98 394.70, 1130.65 395.61, 1130.86 397.10 C 1131.06 398.60, 1131.49 399.85, 1132.41 401.48 C 1133.33 403.11, 1134.23 404.08, 1135.46 405.27 C 1136.70 406.46, 1137.43 407.00, 1138.59 407.41 C 1139.75 407.82, 1140.42 407.77, 1141.27 407.31 C 1142.12 406.85, 1142.55 406.30, 1142.83 405.11 C 1143.12 403.92, 1143.05 403.00, 1142.69 401.36 C 1142.33 399.72, 1141.79 398.67, 1141.02 396.91 C 1140.25 395.15, 1139.65 394.08, 1138.85 392.55 C 1138.06 391.02, 1137.55 390.22, 1137.05 389.26 C 1136.54 388.30, 1136.24 388.07, 1136.33 387.75 C 1136.43 387.42, 1136.52 387.55, 1137.52 387.63 C 1138.52 387.71, 1139.28 387.95, 1141.34 388.14 C 1143.41 388.33, 1144.82 388.45, 1147.84 388.57 C 1150.86 388.70, 1152.76 388.69, 1156.46 388.77 C 1160.15 388.85, 1162.36 388.97, 1166.32 388.99 C 1170.28 389.01, 1172.46 389.01, 1176.27 388.89 C 1180.08 388.76, 1182.08 388.67, 1185.39 388.35 C 1188.70 388.04, 1190.38 387.90, 1192.83 387.29 C 1195.29 386.69, 1196.32 386.25, 1197.66 385.32 C 1199.00 384.38, 1199.43 383.73, 1199.53 382.62 C 1199.64 381.52, 1199.32 380.68, 1198.19 379.80 C 1197.06 378.92, 1195.93 378.40, 1193.87 378.21 C 1191.80 378.02, 1190.30 378.21, 1187.86 378.85 C 1185.42 379.49, 1183.98 380.05, 1181.68 381.39 C 1179.38 382.74, 1177.99 383.65, 1176.36 385.58 C 1174.73 387.51, 1173.96 388.77, 1173.54 391.04 C 1173.12 393.30, 1173.28 394.67, 1174.26 396.92 C 1175.23 399.16, 1176.09 400.45, 1178.42 402.26 C 1180.76 404.07, 1182.54 404.74, 1185.94 405.95 C 1189.34 407.15, 1191.52 407.58, 1195.41 408.29 C 1199.30 409.00, 1201.41 409.20, 1205.41 409.50 C 1209.40 409.79, 1211.58 409.76, 1215.38 409.77 C 1219.17 409.78, 1221.09 409.72, 1224.38 409.55 C 1227.67 409.39, 1229.27 409.29, 1231.81 408.94 C 1234.35 408.59, 1235.45 408.23, 1237.10 407.79 C 1238.75 407.36, 1239.21 407.16, 1240.07 406.74 C 1240.93 406.33, 1241.09 406.07, 1241.42 405.73 C 1241.75 405.40, 1241.72 405.31, 1241.74 405.07 C 1241.75 404.83, 1241.65 404.68, 1241.47 404.54 C 1241.30 404.39, 1241.27 404.36, 1240.85 404.33 C 1240.44 404.30, 1240.26 404.29, 1239.39 404.38 C 1238.51 404.47, 1238.11 404.57, 1236.50 404.78 C 1234.89 404.99, 1233.82 405.12, 1231.35 405.42 C 1228.88 405.72, 1227.36 406.01, 1224.16 406.29 C 1220.96 406.56, 1219.06 406.74, 1215.36 406.80 C 1211.66 406.85, 1209.50 406.89, 1205.64 406.57 C 1201.77 406.25, 1199.71 405.99, 1196.02 405.20 C 1192.33 404.41, 1190.24 403.83, 1187.19 402.61 C 1184.14 401.40, 1182.76 400.55, 1180.77 399.12 C 1178.78 397.70, 1178.07 396.95, 1177.26 395.47 C 1176.45 393.99, 1176.34 393.17, 1176.72 391.72 C 1177.10 390.27, 1177.76 389.51, 1179.16 388.22 C 1180.57 386.92, 1181.78 386.20, 1183.76 385.25 C 1185.73 384.30, 1187.01 383.97, 1189.04 383.47 C 1191.07 382.96, 1192.28 382.95, 1193.90 382.74 C 1195.52 382.52, 1196.29 382.47, 1197.13 382.39 C 1197.97 382.32, 1198.22 382.24, 1198.09 382.34 C 1197.96 382.44, 1197.68 382.59, 1196.48 382.90 C 1195.28 383.21, 1194.37 383.44, 1192.08 383.87 C 1189.79 384.31, 1188.22 384.67, 1185.03 385.07 C 1181.84 385.46, 1179.88 385.69, 1176.15 385.86 C 1172.42 386.03, 1170.27 386.02, 1166.37 385.91 C 1162.47 385.80, 1160.30 385.64, 1156.65 385.32 C 1153.01 384.99, 1151.19 384.58, 1148.15 384.27 C 1145.11 383.96, 1143.72 383.71, 1141.46 383.78 C 1139.21 383.85, 1138.29 384.02, 1136.87 384.62 C 1135.46 385.21, 1135.03 385.68, 1134.41 386.76 C 1133.79 387.84, 1133.71 388.52, 1133.76 390.01 C 1133.82 391.50, 1134.17 392.45, 1134.69 394.21 C 1135.21 395.98, 1135.68 397.10, 1136.37 398.84 C 1137.06 400.59, 1137.47 401.62, 1138.14 402.94 C 1138.81 404.27, 1139.21 404.84, 1139.71 405.47 C 1140.20 406.10, 1140.47 406.16, 1140.61 406.08 C 1140.75 406.00, 1140.70 405.77, 1140.40 405.06 C 1140.11 404.34, 1139.74 403.77, 1139.14 402.51 C 1138.53 401.25, 1138.14 400.18, 1137.39 398.75 C 1136.63 397.33, 1136.14 396.43, 1135.36 395.37 C 1134.57 394.31, 1134.19 393.86, 1133.47 393.44 C 1132.74 393.03, 1132.33 393.00, 1131.74 393.31 C 1131.15 393.62, 1131.04 394.06, 1130.53 395.00 C 1130.02 395.93, 1130.10 396.77, 1129.17 397.99 C 1128.25 399.20, 1127.66 399.91, 1125.93 401.06 C 1124.19 402.21, 1123.02 402.76, 1120.52 403.73 C 1118.02 404.71, 1116.45 405.29, 1113.40 405.91 C 1110.35 406.53, 1108.54 406.78, 1105.26 406.86 C 1101.99 406.94, 1100.14 406.83, 1097.05 406.30 C 1093.95 405.78, 1092.31 405.28, 1089.79 404.24 C 1087.26 403.20, 1086.10 402.54, 1084.43 401.12 C 1082.75 399.70, 1082.11 398.82, 1081.42 397.15 C 1080.73 395.47, 1080.70 394.49, 1080.98 392.74 C 1081.26 391.00, 1081.81 389.98, 1082.82 388.41 C 1083.84 386.85, 1084.64 386.01, 1086.05 384.90 C 1087.47 383.80, 1088.43 383.39, 1089.91 382.89 C 1091.39 382.38, 1092.25 382.27, 1093.47 382.37 C 1094.68 382.46, 1095.25 382.66, 1095.97 383.36 C 1096.69 384.05, 1097.00 384.57, 1097.06 385.85 C 1097.11 387.13, 1096.93 388.02, 1096.25 389.74 C 1095.56 391.46, 1094.97 392.56, 1093.65 394.43 C 1092.32 396.29, 1091.40 397.40, 1089.62 399.06 C 1087.84 400.73, 1086.73 401.55, 1084.73 402.74 C 1082.73 403.92, 1081.64 404.37, 1079.62 405.00 C 1077.60 405.63, 1076.55 405.81, 1074.62 405.89 C 1072.70 405.96, 1071.76 405.85, 1069.99 405.39 C 1068.23 404.93, 1067.39 404.55, 1065.80 403.59 C 1064.20 402.62, 1063.46 402.01, 1062.01 400.56 C 1060.55 399.11, 1059.89 398.16, 1058.52 396.32 C 1057.14 394.48, 1056.48 393.35, 1055.12 391.36 C 1053.77 389.36, 1053.16 388.18, 1051.74 386.33 C 1050.33 384.49, 1049.63 383.47, 1048.04 382.13 C 1046.44 380.80, 1045.55 380.13, 1043.75 379.67 C 1041.96 379.21, 1040.94 379.18, 1039.05 379.82 C 1037.16 380.45, 1036.16 381.17, 1034.31 382.83 C 1032.46 384.49, 1031.47 385.81, 1029.80 388.11 C 1028.12 390.40, 1027.26 391.98, 1025.93 394.31 C 1024.61 396.64, 1024.03 398.03, 1023.18 399.76 C 1022.33 401.49, 1022.17 402.27, 1021.67 402.98 C 1021.16 403.69, 1021.15 403.73, 1020.65 403.32 C 1020.16 402.91, 1019.84 402.38, 1019.17 400.93 C 1018.50 399.48, 1018.14 398.43, 1017.31 396.06 C 1016.47 393.68, 1015.98 392.23, 1015.00 389.05 C 1014.03 385.88, 1013.46 383.99, 1012.43 380.17 C 1011.40 376.35, 1010.85 374.06, 1009.85 369.94 C 1008.85 365.82, 1008.30 363.39, 1007.45 359.58 C 1006.59 355.77, 1006.36 353.67, 1005.58 350.87 C 1004.81 348.06, 1004.28 347.07, 1003.58 345.54 C 1002.88 344.01, 1002.66 343.63, 1002.09 343.23 C 1001.53 342.83, 1001.07 342.93, 1000.74 343.54" style="stroke: #444444; fill: #444444;"/><path d="M 1277.87,339.40 C 1277.39 339.99, 1277.18 340.71, 1277.01 342.30 C 1276.84 343.90, 1276.88 345.02, 1277.03 347.36 C 1277.17 349.69, 1277.33 351.23, 1277.72 353.99 C 1278.11 356.75, 1278.47 358.34, 1278.96 361.17 C 1279.45 364.00, 1279.70 365.45, 1280.18 368.15 C 1280.66 370.86, 1280.73 372.19, 1281.35 374.70 C 1281.98 377.21, 1282.56 379.55, 1283.31 380.69 C 1284.06 381.83, 1284.76 381.70, 1285.09 380.38 C 1285.42 379.07, 1285.17 376.68, 1284.96 374.11 C 1284.75 371.54, 1284.43 370.25, 1284.05 367.54 C 1283.67 364.83, 1283.41 363.39, 1283.07 360.56 C 1282.73 357.74, 1282.64 356.16, 1282.35 353.42 C 1282.05 350.67, 1281.96 349.13, 1281.59 346.85 C 1281.22 344.57, 1280.93 343.50, 1280.49 342.00 C 1280.05 340.50, 1279.92 339.85, 1279.40 339.33 C 1278.87 338.81, 1278.34 338.80, 1277.87 339.40" style="stroke: #444444; fill: #444444;"/><path d="M 1283.28,401.97 C 1282.82 402.41, 1282.60 402.99, 1282.75 403.54 C 1282.89 404.10, 1283.37 404.60, 1284.02 404.72 C 1284.68 404.85, 1285.53 404.66, 1286.02 404.19 C 1286.52 403.72, 1286.70 402.95, 1286.50 402.39 C 1286.30 401.82, 1285.68 401.43, 1285.04 401.35 C 1284.39 401.26, 1283.74 401.53, 1283.28 401.97" style="stroke: #444444; fill: #444444;"/></svg>