<?xml version="1.0" standalone="no"?>
<!DOCTYPE svg PUBLIC "-//W3C//DTD SVG 20010904//EN"
 "http://www.w3.org/TR/2001/REC-SVG-20010904/DTD/svg10.dtd">
<svg version="1.0" xmlns="http://www.w3.org/2000/svg"
 width="200.000000pt" height="400.000000pt"
 preserveAspectRatio="xMidYMid meet">

<g transform="translate(10.000000,450.000000) scale(0.100000,-0.100000)"
stroke="none" fill="white">
<path d="M975 3550 l-90 -90 85 -85 85 -85 475 0 475 0 85 85 85 85 -90 90
-89 89 -465 1 -466 0 -90 -90z"/>
<path d="M777 3352 l-87 -87 0 -469 0 -469 87 -89 87 -88 88 87 87 88 1 470 0
470 -88 88 -87 87 -88 -88z"/>
<path d="M2107 3351 l-87 -88 0 -464 1 -464 87 -92 88 -93 87 88 87 87 0 474
0 474 -84 84 c-46 45 -86 83 -88 83 -2 0 -43 -40 -91 -89z"/>
<path d="M976 2221 l-89 -90 87 -85 88 -86 471 0 472 0 86 86 86 86 -88 89
-88 89 -468 0 -468 0 -89 -89z"/>
<path d="M777 2022 l-87 -87 0 -469 0 -468 89 -88 88 -88 87 87 86 86 0 470 0
470 -83 82 c-45 46 -84 85 -88 88 -3 2 -44 -35 -92 -83z"/>
<path d="M2110 2024 l-84 -87 0 -131 c-1 -72 1 -284 2 -471 l2 -340 64 -65
c35 -36 73 -74 85 -84 l22 -20 84 84 85 85 0 473 0 474 -82 84 c-45 46 -84 84
-87 84 -4 0 -44 -39 -91 -86z"/>

<path d="M4780 993 c0 -7 15 -22 33 -34 23 -16 27 -17 12 -3 -11 10 -26 25
-32 33 -8 9 -13 10 -13 4z"/>
<path d="M975 890 l-88 -89 85 -85 86 -86 474 0 473 0 84 84 c97 98 99 78 -19
193 l-75 73 -466 0 -465 -1 -89 -89z"/>
</g>
</svg>
