<svg xmlns="http://www.w3.org/2000/svg" id="canvas" viewBox="253.306 327.268 901.004 167.925"><path d="M 257.17,414.43 C 257.97 414.64, 258.72 414.45, 260.46 414.01 C 262.20 413.57, 263.44 413.25, 265.86 412.21 C 268.29 411.17, 269.86 410.28, 272.59 408.83 C 275.31 407.38, 276.90 406.54, 279.50 404.96 C 282.11 403.37, 283.50 402.57, 285.62 400.92 C 287.74 399.27, 288.74 398.39, 290.10 396.70 C 291.46 395.02, 292.00 394.16, 292.44 392.49 C 292.88 390.83, 292.92 389.88, 292.30 388.39 C 291.69 386.90, 291.04 386.01, 289.37 385.03 C 287.69 384.04, 286.44 383.59, 283.94 383.47 C 281.44 383.36, 279.78 383.45, 276.88 384.44 C 273.97 385.43, 272.28 386.41, 269.44 388.44 C 266.60 390.48, 264.97 391.83, 262.67 394.62 C 260.37 397.41, 259.20 399.13, 257.94 402.37 C 256.68 405.61, 256.26 407.51, 256.36 410.81 C 256.46 414.11, 256.89 415.90, 258.43 418.86 C 259.97 421.81, 261.27 423.26, 264.07 425.59 C 266.86 427.92, 268.73 428.89, 272.42 430.50 C 276.12 432.12, 278.32 432.67, 282.55 433.66 C 286.77 434.64, 289.16 434.95, 293.54 435.42 C 297.91 435.90, 300.25 435.97, 304.43 436.02 C 308.62 436.07, 310.76 435.93, 314.47 435.69 C 318.17 435.44, 320.07 435.26, 322.95 434.80 C 325.83 434.34, 327.01 433.92, 328.87 433.38 C 330.72 432.84, 331.26 432.56, 332.22 432.09 C 333.18 431.62, 333.32 431.36, 333.67 431.02 C 334.02 430.69, 333.94 430.62, 333.97 430.40 C 334.00 430.17, 333.96 430.06, 333.81 429.90 C 333.65 429.73, 333.66 429.64, 333.19 429.57 C 332.72 429.50, 332.47 429.43, 331.46 429.55 C 330.44 429.67, 329.95 429.85, 328.12 430.16 C 326.30 430.47, 325.12 430.62, 322.33 431.10 C 319.55 431.58, 317.76 432.15, 314.19 432.56 C 310.61 432.97, 308.52 433.14, 304.45 433.16 C 300.38 433.17, 298.09 433.09, 293.84 432.62 C 289.60 432.16, 287.26 431.81, 283.23 430.82 C 279.20 429.82, 277.10 429.21, 273.70 427.65 C 270.30 426.09, 268.66 425.11, 266.22 423.03 C 263.79 420.95, 262.80 419.71, 261.53 417.25 C 260.27 414.79, 259.96 413.43, 259.90 410.72 C 259.85 408.00, 260.14 406.43, 261.26 403.69 C 262.37 400.94, 263.39 399.38, 265.47 396.99 C 267.56 394.61, 269.10 393.37, 271.67 391.75 C 274.24 390.12, 275.88 389.63, 278.33 388.86 C 280.78 388.10, 282.02 388.03, 283.92 387.94 C 285.81 387.84, 286.65 388.06, 287.81 388.39 C 288.97 388.72, 289.36 388.96, 289.71 389.58 C 290.07 390.20, 290.04 390.56, 289.58 391.50 C 289.12 392.44, 288.69 393.03, 287.41 394.26 C 286.13 395.48, 285.19 396.22, 283.18 397.62 C 281.17 399.02, 279.89 399.85, 277.35 401.27 C 274.82 402.68, 273.22 403.41, 270.51 404.70 C 267.79 405.99, 266.09 406.54, 263.77 407.73 C 261.44 408.91, 260.35 409.57, 258.88 410.62 C 257.42 411.67, 256.80 412.20, 256.46 412.96 C 256.11 413.72, 256.36 414.22, 257.17 414.43" style="stroke: #444444; fill: #444444;"/><path d="M 353.35,438.74 C 353.52 439.24, 353.54 439.38, 353.66 439.67 C 353.77 439.96, 353.78 440.07, 353.93 440.17 C 354.09 440.26, 354.15 440.13, 354.41 440.16 C 354.68 440.19, 354.90 440.56, 355.27 440.32 C 355.63 440.09, 356.08 439.73, 356.23 438.97 C 356.38 438.21, 356.24 437.26, 356.02 436.53 C 355.81 435.81, 355.45 435.56, 355.14 435.34 C 354.82 435.12, 354.74 435.41, 354.44 435.44 C 354.14 435.46, 353.93 435.36, 353.64 435.48 C 353.35 435.61, 353.15 435.72, 352.98 436.06 C 352.81 436.40, 352.71 436.65, 352.78 437.18 C 352.85 437.72, 353.17 438.24, 353.35 438.74" style="stroke: #444444; fill: #444444;"/><path d="M 420.45,409.18 C 420.49 408.41, 420.23 407.65, 419.38 406.50 C 418.53 405.36, 417.91 404.52, 416.20 403.46 C 414.49 402.40, 413.24 401.72, 410.83 401.20 C 408.42 400.69, 406.97 400.62, 404.15 400.87 C 401.32 401.13, 399.64 401.49, 396.71 402.47 C 393.78 403.46, 392.03 404.19, 389.49 405.82 C 386.94 407.44, 385.60 408.57, 383.98 410.58 C 382.36 412.60, 381.70 413.86, 381.37 415.87 C 381.05 417.89, 381.28 419.07, 382.35 420.68 C 383.42 422.29, 384.51 423.06, 386.71 423.90 C 388.91 424.75, 390.47 424.98, 393.34 424.92 C 396.21 424.86, 397.96 424.43, 401.05 423.62 C 404.15 422.80, 405.88 422.12, 408.81 420.84 C 411.74 419.57, 413.28 418.80, 415.70 417.25 C 418.13 415.70, 419.26 414.70, 420.94 413.10 C 422.61 411.49, 423.30 410.56, 424.08 409.21 C 424.85 407.87, 424.90 407.07, 424.81 406.37 C 424.73 405.67, 424.11 405.35, 423.65 405.71 C 423.20 406.07, 422.61 406.59, 422.55 408.17 C 422.48 409.76, 422.51 411.06, 423.34 413.64 C 424.17 416.22, 425.15 417.78, 426.70 421.08 C 428.25 424.38, 429.23 426.37, 431.09 430.14 C 432.94 433.91, 434.05 436.00, 435.98 439.92 C 437.90 443.84, 438.99 445.93, 440.72 449.76 C 442.44 453.59, 443.34 455.54, 444.59 459.07 C 445.84 462.59, 446.34 464.33, 446.97 467.40 C 447.60 470.46, 447.73 471.90, 447.74 474.37 C 447.74 476.85, 447.66 477.90, 447.00 479.77 C 446.33 481.63, 445.82 482.37, 444.42 483.68 C 443.01 485.00, 442.12 485.49, 439.99 486.33 C 437.87 487.17, 436.58 487.51, 433.78 487.90 C 430.98 488.30, 429.29 488.44, 425.98 488.31 C 422.67 488.18, 420.75 487.94, 417.23 487.25 C 413.72 486.56, 411.75 486.03, 408.40 484.86 C 405.05 483.70, 403.28 482.94, 400.49 481.44 C 397.69 479.94, 396.41 479.01, 394.43 477.38 C 392.44 475.75, 391.56 474.94, 390.56 473.29 C 389.56 471.64, 389.31 470.81, 389.40 469.13 C 389.50 467.46, 389.86 466.71, 391.02 464.91 C 392.17 463.12, 393.05 462.12, 395.18 460.14 C 397.31 458.17, 398.69 457.00, 401.68 455.03 C 404.68 453.07, 406.56 452.08, 410.16 450.33 C 413.76 448.58, 415.85 447.70, 419.68 446.28 C 423.50 444.85, 425.59 444.23, 429.29 443.21 C 432.99 442.18, 435.13 441.90, 438.19 441.14 C 441.24 440.38, 442.52 440.10, 444.55 439.42 C 446.58 438.73, 447.64 438.31, 448.34 437.73 C 449.04 437.14, 448.95 436.73, 448.07 436.49 C 447.18 436.26, 446.07 436.32, 443.92 436.56 C 441.78 436.80, 440.45 436.95, 437.35 437.69 C 434.25 438.42, 432.15 439.06, 428.41 440.22 C 424.67 441.38, 422.56 442.03, 418.64 443.49 C 414.72 444.94, 412.59 445.78, 408.83 447.50 C 405.07 449.22, 403.11 450.13, 399.84 452.07 C 396.57 454.01, 394.91 455.01, 392.48 457.19 C 390.06 459.37, 388.99 460.61, 387.71 462.98 C 386.43 465.35, 386.10 466.63, 386.07 469.03 C 386.04 471.43, 386.37 472.72, 387.56 474.98 C 388.74 477.23, 389.73 478.39, 391.99 480.30 C 394.26 482.22, 395.82 483.00, 398.88 484.54 C 401.94 486.08, 403.77 486.81, 407.31 488.02 C 410.84 489.23, 412.86 489.79, 416.55 490.58 C 420.24 491.37, 422.22 491.69, 425.77 491.96 C 429.32 492.23, 431.15 492.32, 434.31 491.93 C 437.47 491.54, 439.04 491.16, 441.57 490.02 C 444.09 488.88, 445.22 488.04, 446.95 486.23 C 448.69 484.41, 449.36 483.32, 450.24 480.95 C 451.12 478.57, 451.36 477.22, 451.35 474.36 C 451.34 471.51, 451.00 469.93, 450.20 466.67 C 449.41 463.40, 448.77 461.65, 447.39 458.03 C 446.01 454.42, 445.06 452.46, 443.30 448.59 C 441.53 444.72, 440.44 442.63, 438.58 438.67 C 436.72 434.71, 435.63 432.62, 433.99 428.80 C 432.35 424.98, 431.51 422.94, 430.37 419.59 C 429.24 416.25, 429.09 414.53, 428.34 412.07 C 427.59 409.62, 427.31 408.67, 426.62 407.31 C 425.94 405.96, 425.62 405.69, 424.92 405.30 C 424.22 404.91, 423.85 405.00, 423.13 405.37 C 422.41 405.74, 422.27 406.17, 421.31 407.14 C 420.35 408.11, 419.91 408.90, 418.34 410.21 C 416.77 411.52, 415.70 412.32, 413.47 413.69 C 411.24 415.06, 409.88 415.93, 407.19 417.07 C 404.50 418.20, 402.82 418.75, 400.01 419.38 C 397.21 420.02, 395.60 420.10, 393.16 420.24 C 390.72 420.39, 389.49 420.36, 387.79 420.10 C 386.09 419.84, 385.34 419.62, 384.66 418.93 C 383.97 418.23, 383.91 417.74, 384.36 416.61 C 384.81 415.48, 385.43 414.67, 386.92 413.27 C 388.41 411.87, 389.58 410.94, 391.82 409.62 C 394.06 408.31, 395.58 407.55, 398.13 406.70 C 400.67 405.85, 402.20 405.58, 404.54 405.37 C 406.89 405.17, 407.98 405.26, 409.85 405.68 C 411.73 406.10, 412.51 406.73, 413.92 407.45 C 415.32 408.17, 415.81 408.70, 416.86 409.28 C 417.91 409.86, 418.44 410.36, 419.16 410.34 C 419.87 410.33, 420.40 409.95, 420.45 409.18" style="stroke: #444444; fill: #444444;"/><path d="M 489.48,398.14 C 489.56 397.71, 489.16 397.47, 488.82 397.74 C 488.47 398.01, 487.83 399.07, 487.75 399.50 C 487.67 399.93, 488.07 400.17, 488.42 399.90 C 488.76 399.63, 489.40 398.57, 489.48 398.14" style="stroke: #444444; fill: #444444;"/><path d="M 488.50,418.47 C 488.69 419.22, 489.38 419.77, 490.16 420.26 C 490.94 420.74, 491.51 420.86, 492.39 420.91 C 493.28 420.96, 493.93 420.85, 494.57 420.52 C 495.22 420.20, 495.47 419.79, 495.61 419.30 C 495.76 418.81, 495.52 418.46, 495.28 418.07 C 495.05 417.68, 494.85 417.63, 494.44 417.35 C 494.03 417.08, 493.82 416.93, 493.23 416.69 C 492.65 416.45, 492.31 416.20, 491.51 416.17 C 490.70 416.13, 489.81 416.06, 489.20 416.52 C 488.60 416.98, 488.31 417.72, 488.50 418.47" style="stroke: #444444; fill: #444444;"/><path d="M 581.88,330.90 C 581.30 331.66, 580.97 332.75, 580.74 334.72 C 580.52 336.68, 580.44 338.24, 580.73 340.71 C 581.03 343.19, 581.28 344.97, 582.22 347.07 C 583.15 349.18, 584.08 350.30, 585.42 351.25 C 586.75 352.21, 588.10 351.99, 588.89 351.87 C 589.68 351.75, 589.63 351.17, 589.36 350.64 C 589.08 350.11, 588.06 350.24, 587.53 349.24 C 586.99 348.24, 587.02 347.49, 586.68 345.64 C 586.35 343.79, 586.22 342.21, 585.84 339.98 C 585.46 337.75, 585.22 336.30, 584.78 334.48 C 584.33 332.67, 584.19 331.61, 583.61 330.89 C 583.03 330.17, 582.45 330.13, 581.88 330.90" style="stroke: #444444; fill: #444444;"/><path d="M 597.74,330.73 C 597.10 331.41, 596.69 332.45, 596.30 334.26 C 595.91 336.07, 595.72 337.53, 595.78 339.78 C 595.85 342.03, 596.08 343.62, 596.62 345.51 C 597.16 347.39, 597.77 348.14, 598.49 349.22 C 599.21 350.30, 599.67 350.66, 600.22 350.90 C 600.77 351.14, 601.04 350.93, 601.24 350.42 C 601.45 349.91, 601.22 349.48, 601.23 348.34 C 601.24 347.20, 601.34 346.51, 601.28 344.74 C 601.22 342.97, 601.10 341.56, 600.92 339.49 C 600.73 337.42, 600.65 336.11, 600.37 334.38 C 600.08 332.66, 600.02 331.60, 599.49 330.87 C 598.97 330.14, 598.37 330.05, 597.74 330.73" style="stroke: #444444; fill: #444444;"/><path d="M 646.25,341.24 C 645.66 342.14, 645.18 343.26, 644.94 345.86 C 644.70 348.46, 644.89 350.31, 645.05 354.26 C 645.21 358.21, 645.34 360.89, 645.74 365.62 C 646.14 370.34, 646.40 373.07, 647.05 377.87 C 647.70 382.67, 648.07 385.22, 648.98 389.62 C 649.89 394.01, 650.41 396.13, 651.61 399.85 C 652.81 403.57, 653.46 405.28, 654.96 408.22 C 656.47 411.16, 657.30 412.49, 659.13 414.54 C 660.96 416.60, 662.04 417.40, 664.10 418.48 C 666.17 419.57, 667.28 419.86, 669.47 419.98 C 671.66 420.10, 673.03 420.11, 675.06 419.09 C 677.08 418.08, 678.96 416.12, 679.60 414.90 C 680.24 413.68, 679.51 412.89, 678.27 413.00 C 677.02 413.10, 675.10 414.70, 673.36 415.42 C 671.62 416.14, 671.10 416.58, 669.57 416.59 C 668.04 416.61, 667.28 416.38, 665.73 415.50 C 664.17 414.61, 663.37 413.93, 661.79 412.17 C 660.22 410.40, 659.35 409.31, 657.86 406.67 C 656.36 404.02, 655.58 402.45, 654.32 398.93 C 653.06 395.41, 652.49 393.35, 651.56 389.07 C 650.64 384.79, 650.26 382.26, 649.69 377.53 C 649.12 372.80, 648.94 370.09, 648.72 365.42 C 648.49 360.75, 648.57 358.08, 648.56 354.18 C 648.54 350.28, 648.77 348.50, 648.63 345.93 C 648.49 343.36, 648.34 342.27, 647.87 341.33 C 647.39 340.39, 646.83 340.33, 646.25 341.24" style="stroke: #444444; fill: #444444;"/><path d="M 693.09,387.72 C 692.67 388.37, 692.56 389.07, 692.55 390.69 C 692.55 392.31, 692.61 393.53, 693.08 395.82 C 693.55 398.11, 694.03 399.69, 694.91 402.13 C 695.80 404.56, 696.47 405.92, 697.52 407.99 C 698.57 410.06, 699.11 411.06, 700.14 412.48 C 701.18 413.89, 701.82 414.38, 702.70 415.08 C 703.58 415.78, 704.02 415.95, 704.55 415.98 C 705.09 416.01, 705.33 415.73, 705.37 415.23 C 705.41 414.73, 705.15 414.40, 704.75 413.47 C 704.36 412.54, 704.02 412.03, 703.38 410.59 C 702.75 409.14, 702.30 408.25, 701.58 406.24 C 700.86 404.22, 700.49 402.84, 699.77 400.49 C 699.05 398.15, 698.68 396.63, 697.98 394.51 C 697.27 392.39, 696.90 391.31, 696.25 389.89 C 695.59 388.47, 695.32 387.85, 694.69 387.42 C 694.06 386.98, 693.52 387.06, 693.09 387.72" style="stroke: #444444; fill: #444444;"/><path d="M 692.90,361.57 C 693.32 361.11, 693.14 360.88, 692.91 360.88 C 692.67 360.88, 692.09 361.31, 691.73 361.57 C 691.38 361.83, 691.44 361.87, 691.13 362.18 C 690.82 362.48, 690.25 362.89, 690.18 363.09 C 690.11 363.29, 690.23 363.47, 690.77 363.17 C 691.31 362.87, 692.47 362.03, 692.90 361.57" style="stroke: #444444; fill: #444444;"/><path d="M 724.43,392.57 C 724.09 393.25, 724.12 393.96, 724.27 395.46 C 724.41 396.96, 724.58 398.01, 725.17 400.09 C 725.76 402.17, 726.31 403.66, 727.23 405.85 C 728.15 408.04, 728.72 409.28, 729.79 411.04 C 730.86 412.80, 731.41 413.66, 732.59 414.66 C 733.77 415.66, 734.44 415.98, 735.69 416.06 C 736.93 416.13, 737.62 415.87, 738.82 415.03 C 740.03 414.19, 740.60 413.44, 741.72 411.84 C 742.84 410.23, 743.31 409.04, 744.44 407.01 C 745.58 404.98, 746.14 403.65, 747.40 401.69 C 748.66 399.73, 749.41 398.65, 750.75 397.21 C 752.10 395.77, 752.82 395.14, 754.14 394.50 C 755.45 393.86, 756.06 393.79, 757.32 394.01 C 758.57 394.22, 759.15 394.63, 760.40 395.58 C 761.64 396.54, 762.25 397.29, 763.52 398.78 C 764.79 400.27, 765.45 401.26, 766.74 403.04 C 768.03 404.82, 768.66 405.88, 769.96 407.67 C 771.26 409.47, 771.88 410.47, 773.24 412.01 C 774.60 413.55, 775.29 414.42, 776.77 415.36 C 778.25 416.29, 779.68 416.73, 780.64 416.71 C 781.59 416.68, 781.86 416.05, 781.53 415.25 C 781.21 414.44, 780.04 413.82, 779.01 412.67 C 777.98 411.51, 777.48 410.95, 776.39 409.46 C 775.29 407.97, 774.73 407.01, 773.53 405.20 C 772.33 403.39, 771.74 402.28, 770.39 400.40 C 769.03 398.53, 768.34 397.44, 766.77 395.82 C 765.20 394.20, 764.34 393.35, 762.54 392.31 C 760.74 391.27, 759.72 390.84, 757.77 390.62 C 755.82 390.41, 754.76 390.51, 752.79 391.22 C 750.81 391.93, 749.76 392.62, 747.91 394.17 C 746.06 395.71, 745.12 396.89, 743.53 398.95 C 741.94 401.02, 741.18 402.39, 739.98 404.49 C 738.79 406.60, 738.28 407.81, 737.55 409.47 C 736.82 411.14, 736.68 411.92, 736.34 412.81 C 736.00 413.70, 736.10 413.95, 735.85 413.92 C 735.59 413.88, 735.51 413.58, 735.09 412.62 C 734.67 411.67, 734.35 410.87, 733.75 409.14 C 733.14 407.41, 732.84 406.12, 732.08 403.97 C 731.32 401.82, 730.81 400.31, 729.96 398.37 C 729.11 396.43, 728.61 395.52, 727.82 394.26 C 727.03 392.99, 726.69 392.40, 726.01 392.06 C 725.33 391.72, 724.78 391.89, 724.43 392.57" style="stroke: #444444; fill: #444444;"/><path d="M 800.41,356.87 C 799.98 357.59, 799.77 358.28, 799.79 360.25 C 799.80 362.23, 799.97 363.65, 800.49 366.73 C 801.01 369.80, 801.62 371.86, 802.39 375.62 C 803.15 379.38, 803.60 381.68, 804.31 385.53 C 805.02 389.38, 805.33 391.40, 805.95 394.85 C 806.57 398.31, 806.78 399.95, 807.42 402.82 C 808.06 405.70, 808.38 406.99, 809.15 409.23 C 809.91 411.47, 810.28 412.48, 811.24 414.01 C 812.19 415.54, 812.70 416.14, 813.94 416.88 C 815.17 417.62, 815.91 417.87, 817.41 417.71 C 818.91 417.56, 819.74 417.21, 821.44 416.12 C 823.14 415.03, 824.04 414.10, 825.90 412.27 C 827.77 410.43, 828.77 409.16, 830.78 406.95 C 832.80 404.74, 833.93 403.37, 835.99 401.22 C 838.04 399.07, 839.24 398.02, 841.04 396.21 C 842.84 394.40, 843.71 393.58, 844.99 392.18 C 846.27 390.78, 847.11 390.04, 847.43 389.23 C 847.75 388.42, 847.48 388.02, 846.59 388.11 C 845.70 388.21, 844.66 388.69, 842.98 389.69 C 841.30 390.69, 840.20 391.41, 838.19 393.11 C 836.18 394.82, 835.07 396.08, 832.92 398.21 C 830.77 400.34, 829.57 401.66, 827.46 403.77 C 825.35 405.88, 824.12 406.95, 822.37 408.76 C 820.62 410.57, 819.86 411.59, 818.73 412.82 C 817.60 414.05, 817.37 414.54, 816.72 414.92 C 816.08 415.29, 816.00 415.19, 815.49 414.69 C 814.97 414.20, 814.73 413.75, 814.16 412.43 C 813.58 411.12, 813.24 410.21, 812.62 408.12 C 811.99 406.03, 811.70 404.76, 811.02 401.98 C 810.35 399.20, 809.92 397.63, 809.23 394.23 C 808.55 390.82, 808.23 388.81, 807.61 384.96 C 806.98 381.11, 806.63 378.78, 806.10 374.98 C 805.56 371.19, 805.46 369.02, 804.92 365.96 C 804.37 362.90, 803.97 361.54, 803.37 359.68 C 802.77 357.83, 802.53 357.24, 801.94 356.68 C 801.34 356.12, 800.84 356.16, 800.41 356.87" style="stroke: #444444; fill: #444444;"/><path d="M 823.28,407.55 C 823.65 408.36, 824.38 408.92, 825.91 410.11 C 827.44 411.31, 828.47 412.21, 830.94 413.52 C 833.41 414.84, 835.20 415.50, 838.25 416.69 C 841.30 417.88, 843.01 418.50, 846.19 419.49 C 849.37 420.48, 851.02 420.93, 854.15 421.64 C 857.28 422.36, 858.83 422.67, 861.85 423.07 C 864.86 423.47, 866.34 423.62, 869.21 423.66 C 872.08 423.71, 873.50 423.65, 876.19 423.29 C 878.88 422.93, 880.20 422.65, 882.66 421.86 C 885.13 421.07, 886.32 420.57, 888.52 419.35 C 890.72 418.13, 891.82 417.42, 893.66 415.76 C 895.50 414.10, 896.43 413.07, 897.70 411.05 C 898.98 409.03, 899.52 407.82, 900.03 405.66 C 900.54 403.49, 900.64 402.25, 900.25 400.23 C 899.86 398.22, 899.39 397.08, 898.09 395.59 C 896.79 394.10, 895.74 393.42, 893.75 392.79 C 891.76 392.16, 890.42 392.06, 888.13 392.46 C 885.84 392.85, 884.39 393.39, 882.31 394.77 C 880.22 396.15, 879.03 397.21, 877.70 399.35 C 876.37 401.49, 875.79 402.96, 875.65 405.45 C 875.51 407.94, 875.74 409.44, 876.99 411.82 C 878.23 414.19, 879.29 415.51, 881.88 417.34 C 884.47 419.17, 886.30 419.82, 889.92 420.98 C 893.54 422.14, 895.75 422.57, 899.98 423.14 C 904.21 423.71, 906.64 423.80, 911.08 423.84 C 915.52 423.87, 917.91 423.70, 922.18 423.32 C 926.45 422.94, 928.61 422.65, 932.43 421.96 C 936.26 421.27, 938.15 420.88, 941.31 419.87 C 944.48 418.86, 945.96 418.28, 948.25 416.89 C 950.55 415.50, 951.46 414.64, 952.79 412.92 C 954.12 411.20, 954.58 410.20, 954.92 408.29 C 955.25 406.38, 955.16 405.23, 954.48 403.36 C 953.79 401.48, 953.10 400.42, 951.49 398.92 C 949.88 397.42, 948.70 396.67, 946.41 395.87 C 944.13 395.08, 942.66 394.82, 940.08 394.94 C 937.49 395.06, 935.99 395.41, 933.49 396.46 C 930.99 397.52, 929.58 398.38, 927.58 400.21 C 925.57 402.05, 924.59 403.32, 923.46 405.65 C 922.32 407.98, 921.94 409.45, 921.89 411.85 C 921.84 414.26, 922.18 415.60, 923.21 417.69 C 924.25 419.78, 925.15 420.81, 927.07 422.30 C 928.98 423.80, 930.30 424.42, 932.78 425.14 C 935.26 425.87, 936.78 426.02, 939.48 425.93 C 942.18 425.83, 943.65 425.57, 946.27 424.66 C 948.89 423.75, 950.28 423.14, 952.58 421.39 C 954.89 419.65, 956.06 418.53, 957.80 415.95 C 959.54 413.37, 960.26 411.75, 961.29 408.50 C 962.32 405.24, 962.66 403.33, 962.97 399.65 C 963.28 395.98, 963.19 393.85, 962.85 390.13 C 962.51 386.41, 962.10 384.37, 961.26 381.06 C 960.42 377.74, 959.86 376.02, 958.65 373.57 C 957.44 371.13, 956.61 369.99, 955.19 368.83 C 953.77 367.66, 952.70 367.32, 951.56 367.75 C 950.42 368.19, 949.83 369.06, 949.51 371.02 C 949.19 372.97, 949.26 374.51, 949.96 377.54 C 950.67 380.57, 951.58 382.51, 953.05 386.17 C 954.52 389.83, 955.50 392.08, 957.32 395.83 C 959.14 399.58, 960.14 401.54, 962.14 404.92 C 964.13 408.30, 965.22 409.90, 967.31 412.73 C 969.39 415.56, 970.45 416.93, 972.56 419.08 C 974.67 421.24, 975.78 422.12, 977.85 423.50 C 979.92 424.87, 980.96 425.34, 982.91 425.95 C 984.87 426.56, 985.86 426.69, 987.64 426.53 C 989.42 426.36, 990.31 426.06, 991.81 425.13 C 993.30 424.20, 993.99 423.44, 995.12 421.88 C 996.25 420.31, 996.71 419.23, 997.46 417.29 C 998.21 415.35, 998.53 414.09, 998.88 412.16 C 999.23 410.23, 999.29 408.95, 999.20 407.66 C 999.12 406.37, 998.66 405.84, 998.45 405.72 C 998.24 405.60, 997.97 406.05, 998.16 407.05 C 998.34 408.06, 998.52 409.07, 999.37 410.72 C 1000.23 412.38, 1000.99 413.56, 1002.44 415.33 C 1003.89 417.11, 1004.91 418.12, 1006.62 419.61 C 1008.34 421.10, 1009.43 421.79, 1011.00 422.78 C 1012.58 423.76, 1013.28 424.13, 1014.49 424.54 C 1015.71 424.96, 1016.30 424.92, 1017.08 424.85 C 1017.87 424.78, 1018.16 424.52, 1018.42 424.20 C 1018.67 423.87, 1018.54 423.52, 1018.36 423.22 C 1018.19 422.92, 1018.00 423.03, 1017.53 422.70 C 1017.07 422.37, 1016.87 422.21, 1016.04 421.56 C 1015.22 420.91, 1014.66 420.53, 1013.42 419.47 C 1012.18 418.40, 1011.23 417.72, 1009.86 416.24 C 1008.49 414.77, 1007.81 413.77, 1006.56 412.10 C 1005.31 410.43, 1004.78 409.31, 1003.59 407.90 C 1002.40 406.50, 1001.79 405.76, 1000.62 405.08 C 999.46 404.39, 998.80 404.16, 997.77 404.50 C 996.74 404.83, 996.20 405.43, 995.48 406.75 C 994.75 408.08, 994.63 409.31, 994.15 411.12 C 993.68 412.93, 993.60 414.08, 993.10 415.80 C 992.60 417.52, 992.30 418.41, 991.64 419.71 C 990.99 421.01, 990.68 421.58, 989.82 422.29 C 988.97 423.00, 988.53 423.18, 987.37 423.26 C 986.20 423.34, 985.50 423.25, 984.01 422.69 C 982.51 422.14, 981.66 421.75, 979.89 420.50 C 978.13 419.26, 977.17 418.42, 975.17 416.47 C 973.17 414.52, 971.97 413.38, 969.90 410.76 C 967.82 408.13, 966.73 406.60, 964.79 403.34 C 962.86 400.09, 961.88 398.16, 960.24 394.47 C 958.60 390.78, 957.74 388.50, 956.59 384.89 C 955.45 381.28, 955.24 379.23, 954.51 376.42 C 953.78 373.61, 953.45 372.34, 952.95 370.84 C 952.46 369.35, 952.06 368.96, 952.04 368.94 C 952.03 368.92, 952.29 369.48, 952.90 370.74 C 953.50 372.00, 954.10 372.98, 955.07 375.24 C 956.04 377.49, 956.88 378.96, 957.75 382.00 C 958.62 385.04, 959.08 386.99, 959.43 390.45 C 959.78 393.92, 959.83 395.96, 959.49 399.34 C 959.16 402.71, 958.77 404.46, 957.77 407.33 C 956.77 410.19, 956.02 411.51, 954.49 413.68 C 952.97 415.84, 952.06 416.74, 950.15 418.15 C 948.24 419.56, 947.11 420.03, 944.95 420.74 C 942.78 421.44, 941.55 421.60, 939.34 421.66 C 937.13 421.73, 935.89 421.58, 933.90 421.07 C 931.92 420.56, 930.89 420.14, 929.41 419.12 C 927.93 418.11, 927.26 417.43, 926.51 416.01 C 925.76 414.58, 925.54 413.70, 925.65 412.00 C 925.76 410.30, 926.11 409.23, 927.06 407.51 C 928.01 405.78, 928.80 404.79, 930.42 403.37 C 932.03 401.96, 933.19 401.25, 935.16 400.42 C 937.13 399.59, 938.30 399.30, 940.27 399.21 C 942.25 399.12, 943.32 399.38, 945.02 399.95 C 946.73 400.51, 947.57 401.07, 948.79 402.03 C 950.01 403.00, 950.55 403.62, 951.14 404.77 C 951.72 405.91, 951.91 406.55, 951.74 407.77 C 951.56 408.99, 951.32 409.64, 950.26 410.85 C 949.19 412.06, 948.43 412.65, 946.43 413.82 C 944.42 414.98, 943.14 415.63, 940.23 416.67 C 937.32 417.71, 935.53 418.25, 931.86 419.02 C 928.20 419.78, 926.07 420.11, 921.92 420.50 C 917.77 420.89, 915.42 421.06, 911.12 420.97 C 906.82 420.89, 904.45 420.74, 900.44 420.08 C 896.43 419.42, 894.31 418.87, 891.07 417.66 C 887.82 416.46, 886.37 415.57, 884.22 414.04 C 882.07 412.51, 881.27 411.66, 880.31 410.00 C 879.35 408.34, 879.24 407.40, 879.41 405.73 C 879.59 404.07, 880.11 403.11, 881.17 401.66 C 882.23 400.21, 883.17 399.48, 884.73 398.48 C 886.29 397.47, 887.38 397.04, 888.99 396.63 C 890.59 396.23, 891.47 396.20, 892.76 396.46 C 894.05 396.71, 894.65 397.05, 895.42 397.92 C 896.19 398.80, 896.45 399.48, 896.61 400.82 C 896.77 402.17, 896.69 403.07, 896.22 404.67 C 895.76 406.28, 895.34 407.24, 894.28 408.86 C 893.22 410.48, 892.48 411.36, 890.94 412.76 C 889.40 414.17, 888.48 414.82, 886.58 415.89 C 884.69 416.96, 883.65 417.42, 881.47 418.12 C 879.28 418.81, 878.11 419.06, 875.67 419.38 C 873.23 419.69, 871.92 419.71, 869.25 419.69 C 866.58 419.67, 865.17 419.62, 862.32 419.29 C 859.46 418.96, 857.96 418.72, 854.98 418.03 C 851.99 417.35, 850.40 416.92, 847.39 415.86 C 844.38 414.81, 842.79 414.09, 839.94 412.75 C 837.09 411.42, 835.60 410.37, 833.15 409.18 C 830.70 407.99, 829.52 407.43, 827.70 406.81 C 825.88 406.19, 824.94 405.92, 824.06 406.07 C 823.17 406.22, 822.91 406.74, 823.28 407.55" style="stroke: #444444; fill: #444444;"/><path d="M 994.72,377.65 C 994.24 377.49, 994.12 377.65, 993.89 378.08 C 993.66 378.51, 993.64 379.07, 993.59 379.79 C 993.54 380.52, 993.22 381.35, 993.64 381.70 C 994.07 382.05, 994.87 382.03, 995.70 381.54 C 996.53 381.05, 997.32 380.07, 997.79 379.25 C 998.25 378.43, 998.17 377.68, 998.01 377.43 C 997.86 377.19, 997.25 377.71, 996.99 378.02 C 996.72 378.33, 996.83 378.80, 996.69 378.97 C 996.54 379.14, 996.67 379.14, 996.27 378.87 C 995.88 378.61, 995.20 377.81, 994.72 377.65" style="stroke: #444444; fill: #444444;"/><path d="M 1031.41,405.74 C 1031.02 406.42, 1031.00 407.24, 1031.10 408.70 C 1031.19 410.16, 1031.35 411.15, 1031.88 413.03 C 1032.41 414.90, 1032.84 416.24, 1033.75 418.09 C 1034.67 419.95, 1035.29 420.95, 1036.44 422.32 C 1037.59 423.70, 1038.20 424.29, 1039.51 424.97 C 1040.82 425.65, 1041.57 425.85, 1042.99 425.73 C 1044.40 425.61, 1045.15 425.28, 1046.56 424.38 C 1047.98 423.47, 1048.63 422.70, 1050.05 421.21 C 1051.47 419.72, 1052.18 418.65, 1053.68 416.94 C 1055.18 415.23, 1055.96 414.15, 1057.55 412.65 C 1059.13 411.15, 1060.00 410.39, 1061.60 409.46 C 1063.21 408.53, 1064.05 408.20, 1065.58 408.02 C 1067.12 407.83, 1067.83 407.96, 1069.29 408.52 C 1070.75 409.09, 1071.44 409.68, 1072.88 410.82 C 1074.33 411.97, 1075.06 412.79, 1076.53 414.25 C 1077.99 415.71, 1078.72 416.59, 1080.22 418.12 C 1081.71 419.65, 1082.49 420.51, 1084.01 421.88 C 1085.53 423.25, 1086.26 423.97, 1087.83 424.96 C 1089.39 425.94, 1090.40 426.40, 1091.84 426.80 C 1093.27 427.20, 1094.25 427.20, 1094.98 426.95 C 1095.72 426.69, 1095.85 426.16, 1095.50 425.51 C 1095.16 424.86, 1094.36 424.48, 1093.27 423.71 C 1092.19 422.94, 1091.38 422.61, 1090.09 421.64 C 1088.79 420.67, 1088.15 420.18, 1086.80 418.88 C 1085.45 417.58, 1084.78 416.69, 1083.34 415.14 C 1081.89 413.59, 1081.17 412.66, 1079.57 411.13 C 1077.97 409.59, 1077.14 408.70, 1075.33 407.47 C 1073.51 406.24, 1072.51 405.60, 1070.49 404.98 C 1068.47 404.36, 1067.36 404.20, 1065.22 404.38 C 1063.08 404.56, 1061.90 404.91, 1059.78 405.88 C 1057.66 406.85, 1056.55 407.69, 1054.60 409.24 C 1052.66 410.80, 1051.69 411.91, 1050.05 413.67 C 1048.42 415.43, 1047.63 416.51, 1046.42 418.05 C 1045.21 419.59, 1044.78 420.39, 1044.00 421.36 C 1043.21 422.32, 1043.06 422.66, 1042.50 422.87 C 1041.95 423.08, 1041.76 422.97, 1041.23 422.42 C 1040.70 421.86, 1040.44 421.35, 1039.86 420.09 C 1039.29 418.82, 1039.01 417.83, 1038.36 416.09 C 1037.70 414.35, 1037.31 413.08, 1036.60 411.38 C 1035.88 409.69, 1035.49 408.82, 1034.79 407.60 C 1034.09 406.39, 1033.76 405.68, 1033.09 405.30 C 1032.42 404.93, 1031.81 405.07, 1031.41 405.74" style="stroke: #444444; fill: #444444;"/><path d="M 1132.89,344.07 C 1132.29 344.75, 1131.91 345.80, 1131.67 347.48 C 1131.43 349.15, 1131.42 350.61, 1131.70 352.44 C 1131.97 354.27, 1132.39 355.34, 1133.05 356.61 C 1133.72 357.89, 1134.38 358.47, 1135.03 358.82 C 1135.68 359.17, 1136.00 358.98, 1136.32 358.38 C 1136.65 357.78, 1136.58 357.11, 1136.66 355.80 C 1136.75 354.49, 1136.89 353.55, 1136.75 351.84 C 1136.61 350.13, 1136.37 348.80, 1135.96 347.25 C 1135.54 345.69, 1135.29 344.69, 1134.68 344.06 C 1134.07 343.42, 1133.50 343.39, 1132.89 344.07" style="stroke: #444444; fill: #444444;"/><path d="M 1148.41,340.77 C 1147.78 341.44, 1147.42 342.44, 1146.96 344.24 C 1146.51 346.04, 1146.28 347.48, 1146.13 349.79 C 1145.97 352.09, 1145.96 353.72, 1146.19 355.78 C 1146.43 357.84, 1146.82 358.74, 1147.30 360.07 C 1147.78 361.40, 1148.09 362.00, 1148.59 362.44 C 1149.08 362.87, 1149.43 362.77, 1149.77 362.25 C 1150.12 361.72, 1150.06 361.11, 1150.31 359.81 C 1150.55 358.51, 1150.80 357.71, 1151.00 355.74 C 1151.20 353.77, 1151.31 352.21, 1151.31 349.96 C 1151.31 347.71, 1151.22 346.30, 1150.99 344.49 C 1150.76 342.68, 1150.66 341.66, 1150.14 340.92 C 1149.63 340.18, 1149.05 340.11, 1148.41 340.77" style="stroke: #444444; fill: #444444;"/></svg>